<?xml version="1.0" encoding="utf-8"?>
<!-- Generator: Adobe Illustrator 22.0.1, SVG Export Plug-In . SVG Version: 6.00 Build 0)  -->
<svg version="1.1" id="Layer_1" xmlns="http://www.w3.org/2000/svg" xmlns:xlink="http://www.w3.org/1999/xlink" x="0px" y="0px"
	 viewBox="0 0 799 601" style="enable-background:new 0 0 799 601;" xml:space="preserve">
<style type="text/css">
	.st0{fill:#EA473E;}
	.st1{display:none;}
	.st2{fill:#458BF3;}
	.st3{fill:#FFFFFF;}
	.st4{font-family:'ArialMT';}
	.st5{font-size:9.1941px;}
	.st6{fill:#CDCFD5;}
	.st7{fill:#2D3035;}
	.st8{fill:#1E1E1F;}
	.st9{fill:#696D72;}
	.st10{fill:#E4B319;}
	.st11{fill:#5F9D50;}
	.st12{fill:#64A554;}
	.st13{fill:#3C682A;}
	.st14{fill:#3C692A;}
	.st15{fill:#FEFEFE;}
	.st16{fill:#DDDEE2;}
	.st17{fill:#C23C31;}
	.st18{fill:#9E2B24;}
	.st19{fill:#DFE0E4;}
	.st20{fill:#EAB81A;}
	.st21{fill:#CB8C17;}
	.st22{fill:#CC8E18;}
	.st23{fill:#CC8D17;}
	.st24{fill:#EFEFF1;}
	.st25{fill:#C23B30;}
	.st26{fill:#EFF0F2;}
</style>
<g id="xwZEAs.tif_1_">
	<rect class="st0" width="800" height="600"/>
</g>
<g id="ORGIlA.tif" class="st1">
	<image style="display:inline;overflow:visible;" width="800" height="600" id="Layer_0_1_" xlink:href="CCDA75912CFA838A.png" >
	</image>
</g>
<g>
	<g>
		<path class="st3" d="M255.8,380.4c-3.5,0-13.2,0-13.2,0s0-9,0-12.6V218.1c0-12-0.1-12.6,13.2-12.6h235.2
			c13.3,0,13.2,0.6,13.2,12.6v37.6c0.4,0.1,0.9,0.2,1.4,0.2c2.2,0,3.1-0.8,5-2.7c1.2-1.2,2.6-2.6,4.6-3.6v-41.4
			c0-7.8-6.4-14.2-14.3-14.2H245.9c-7.9,0-14.3,6.4-14.3,14.2v168.2c0,4.1,0,14.2,0,14.2s10.5,0,14.3,0h72.2
			c-0.1-2.3-0.7-4.9-2.3-7.7c19,0,100.6,0,120.7,0c0.8,2.7,1.1,5.2,1.2,7.7H462c0-3.2-0.6-6.6-2.1-10.2H255.8z"/>
		<path class="st3" d="M515.1,334.4v-75c-2,2-4.8,4.2-9.6,4.2c-0.5,0-0.9,0-1.4-0.1v26.3c2.2,0,4.1,0,5.9,0c0,0,10.2,16.6,0,34.5
			c-2.2,0-4.2,0-5.9,0v43.6c0,3.5,0,12.6,0,12.6s-9.5,0-13.2,0h-2.5c0.9,2.8,1.7,6.2,1.8,10.2h10.6c3.9,0,14.3,0,14.3,0
			s0-10.3,0-14.2v-12.6h-1.4C512.1,356.5,511.3,345.9,515.1,334.4C515.1,334.4,515.1,334.4,515.1,334.4z"/>
	</g>
	<g>
		<path class="st3" d="M280.2,223.3h-24.4c-1.4,0-2.5-1.1-2.5-2.5v-1.4c0-1.4,1.1-2.5,2.5-2.5h24.4c1.4,0,2.5,1.1,2.5,2.5v1.4
			C282.7,222.2,281.6,223.3,280.2,223.3z"/>
		<path class="st3" d="M263.6,234.8h-7.8c-1.4,0-2.5-1.1-2.5-2.5v-1.4c0-1.4,1.1-2.5,2.5-2.5h7.8c1.4,0,2.5,1.1,2.5,2.5v1.4
			C266.1,233.7,265,234.8,263.6,234.8z"/>
		<path class="st3" d="M293,234.8h-19.3c-1.4,0-2.5-1.1-2.5-2.5v-1.4c0-1.4,1.1-2.5,2.5-2.5H293c1.4,0,2.5,1.1,2.5,2.5v1.4
			C295.5,233.7,294.3,234.8,293,234.8z"/>
		<path class="st3" d="M310.8,234.8h-7.8c-1.4,0-2.5-1.1-2.5-2.5v-1.4c0-1.4,1.1-2.5,2.5-2.5h7.8c1.4,0,2.5,1.1,2.5,2.5v1.4
			C313.3,233.7,312.2,234.8,310.8,234.8z"/>
		<path class="st3" d="M326.2,245h-52.5c-1.4,0-2.5-1.1-2.5-2.5v-1.4c0-1.4,1.1-2.5,2.5-2.5h52.5c1.4,0,2.5,1.1,2.5,2.5v1.4
			C328.7,243.9,327.5,245,326.2,245z"/>
		<path class="st3" d="M347.9,245h-11.6c-1.4,0-2.5-1.1-2.5-2.5v-1.4c0-1.4,1.1-2.5,2.5-2.5h11.6c1.4,0,2.5,1.1,2.5,2.5v1.4
			C350.4,243.9,349.3,245,347.9,245z"/>
		<path class="st3" d="M356.8,256.5h-60.1c-1.4,0-2.5-1.1-2.5-2.5v-1.4c0-1.4,1.1-2.5,2.5-2.5h60.1c1.4,0,2.5,1.1,2.5,2.5v1.4
			C359.3,255.4,358.2,256.5,356.8,256.5z"/>
		<path class="st3" d="M327.4,268h-53.7c-1.4,0-2.5-1.1-2.5-2.5v-1.4c0-1.4,1.1-2.5,2.5-2.5h53.7c1.4,0,2.5,1.1,2.5,2.5v1.4
			C329.9,266.9,328.8,268,327.4,268z"/>
		<path class="st3" d="M263.6,278.2h-7.8c-1.4,0-2.5-1.1-2.5-2.5v-1.4c0-1.4,1.1-2.5,2.5-2.5h7.8c1.4,0,2.5,1.1,2.5,2.5v1.4
			C266.1,277.1,265,278.2,263.6,278.2z"/>
		<path class="st3" d="M293,278.2h-19.3c-1.4,0-2.5-1.1-2.5-2.5v-1.4c0-1.4,1.1-2.5,2.5-2.5H293c1.4,0,2.5,1.1,2.5,2.5v1.4
			C295.5,277.1,294.3,278.2,293,278.2z"/>
		<path class="st3" d="M310.8,278.2h-7.8c-1.4,0-2.5-1.1-2.5-2.5v-1.4c0-1.4,1.1-2.5,2.5-2.5h7.8c1.4,0,2.5,1.1,2.5,2.5v1.4
			C313.3,277.1,312.2,278.2,310.8,278.2z"/>
		<path class="st3" d="M264.9,289.7h-9c-1.4,0-2.5-1.1-2.5-2.5v-1.4c0-1.4,1.1-2.5,2.5-2.5h9c1.4,0,2.5,1.1,2.5,2.5v1.4
			C267.4,288.6,266.3,289.7,264.9,289.7z"/>
		<path class="st3" d="M281.5,301.2h-25.6c-1.4,0-2.5-1.1-2.5-2.5v-1.4c0-1.4,1.1-2.5,2.5-2.5h25.6c1.4,0,2.5,1.1,2.5,2.5v1.4
			C284,300.1,282.9,301.2,281.5,301.2z"/>
		<path class="st3" d="M263.6,312.7h-7.8c-1.4,0-2.5-1.1-2.5-2.5v-1.4c0-1.4,1.1-2.5,2.5-2.5h7.8c1.4,0,2.5,1.1,2.5,2.5v1.4
			C266.1,311.6,265,312.7,263.6,312.7z"/>
		<path class="st3" d="M293,312.7h-19.3c-1.4,0-2.5-1.1-2.5-2.5v-1.4c0-1.4,1.1-2.5,2.5-2.5H293c1.4,0,2.5,1.1,2.5,2.5v1.4
			C295.5,311.6,294.3,312.7,293,312.7z"/>
		<path class="st3" d="M310.8,312.7h-7.8c-1.4,0-2.5-1.1-2.5-2.5v-1.4c0-1.4,1.1-2.5,2.5-2.5h7.8c1.4,0,2.5,1.1,2.5,2.5v1.4
			C313.3,311.6,312.2,312.7,310.8,312.7z"/>
		<path class="st3" d="M326.2,322.9h-53.7c-1.4,0-2.5-1.1-2.5-2.5V319c0-1.4,1.1-2.5,2.5-2.5h53.7c1.4,0,2.5,1.1,2.5,2.5v1.4
			C328.7,321.8,327.5,322.9,326.2,322.9z"/>
		<path class="st3" d="M263.6,334.4h-7.8c-1.4,0-2.5-1.1-2.5-2.5v-1.4c0-1.4,1.1-2.5,2.5-2.5h7.8c1.4,0,2.5,1.1,2.5,2.5v1.4
			C266.1,333.3,265,334.4,263.6,334.4z"/>
		<path class="st3" d="M293,334.4h-19.3c-1.4,0-2.5-1.1-2.5-2.5v-1.4c0-1.4,1.1-2.5,2.5-2.5H293c1.4,0,2.5,1.1,2.5,2.5v1.4
			C295.5,333.3,294.3,334.4,293,334.4z"/>
		<path class="st3" d="M310.8,334.4h-7.8c-1.4,0-2.5-1.1-2.5-2.5v-1.4c0-1.4,1.1-2.5,2.5-2.5h7.8c1.4,0,2.5,1.1,2.5,2.5v1.4
			C313.3,333.3,312.2,334.4,310.8,334.4z"/>
		<path class="st3" d="M264.9,345.9h-9c-1.4,0-2.5-1.1-2.5-2.5V342c0-1.4,1.1-2.5,2.5-2.5h9c1.4,0,2.5,1.1,2.5,2.5v1.4
			C267.4,344.8,266.3,345.9,264.9,345.9z"/>
	</g>
	<path class="st3" d="M618.6,324.2h-99c-2,3.4-3.5,6.9-4.6,10.2h103.5c2.5,0,4.5,0,4.5,0s0-3.8,0-5.7
		C623.1,326.2,621.1,324.2,618.6,324.2z"/>
	<path class="st3" d="M619.2,363.8H513.7c1.4,6.3,3.4,10.2,3.4,10.2h102.1c2.5,0,4.5-2,4.5-4.5c0-1.9,0-5.7,0-5.7
		S621.7,363.8,619.2,363.8z"/>
	<text transform="matrix(1.3333 0 0 1 144 200.4132)" class="st4 st5"> </text>
	<path class="st3" d="M519.6,324.2c-38.3,0-159.6,0-159.6,0s-13.5,25.5-1.3,49.8c31.9,0,158.3,0,158.3,0S504.9,349.7,519.6,324.2z
		 M425.8,367l-16.7-15.2l14-16.6l4.1,3.5l-10.5,12.4l12.5,11.7L425.8,367z M442.4,365.6l-4.1-3.5l10.4-13.7l-12.4-10.5l3.5-4.1
		l16.6,14L442.4,365.6z"/>
	<path class="st3" d="M503.6,289.7c-5.5,0-10.6,0-15.3,0c12.8,17.9,0,34.5,0,34.5s2.1,0,5.7,0c2.5,0,5.8,0,9.7,0
		C503.6,324.2,516.4,307.6,503.6,289.7z"/>
	<g>
		<path class="st3" d="M579,289.7c-14.6,0-36,0-56.5,0c-4.2,0-8.4,0-12.5,0c0,0,10.2,16.6,0,34.5c16.4,0,39.4,0,59.3,0
			c3.3,0,6.6,0,9.7,0C579,324.2,591.7,307.6,579,289.7z"/>
		<path class="st3" d="M596.8,289.7c0,0-4.4,0-11.5,0c0,0,10.2,16.6,0,34.5c4.2,0,8.1,0,11.5,0C607,306.3,596.8,289.7,596.8,289.7z"
			/>
	</g>
	<path class="st3" d="M488.3,289.7h-93.9c-2.5,0-4.5,2-4.5,4.5c0,1.9,0,4.5,0,4.5s1.9,0,4.5,0h98.3
		C491.9,295.8,490.5,292.8,488.3,289.7z"/>
	<path class="st3" d="M488.3,324.2h-93.9c-2.5,0-4.5-2-4.5-4.5c0-1.9,0-4.5,0-4.5s1.9,0,4.5,0h98.3
		C491.9,318.2,490.5,321.2,488.3,324.2z"/>
	<path class="st3" d="M490.8,262.9h-16.1c-4.5,0-8.1-3.6-8.1-8.1V248c0-4.5,3.6-8.1,8.1-8.1h16.1c0-4,0-7.7,0-7.7h-17.8
		c-7.8,0-14.2,6.3-14.2,14.2v11.3c0,7.8,6.3,14.2,14.2,14.2h17.8V262.9z"/>
	<g>
		<path class="st3" d="M551.5,255.9c-2.2,0-3.1,0.8-5,2.7c-2.1,2.1-5,5-10.4,5c-5.4,0-8.3-2.9-10.4-5c-1.9-1.9-2.8-2.7-4.9-2.7
			c-2.2,0-3.1,0.8-5,2.7c-2.1,2.1-5,5-10.4,5c-5.4,0-8.3-2.9-10.4-5c-1.7-1.7-2.6-2.5-4.3-2.7v17.8c0,8.8,7.2,16,16,16h43.4
			c8.8,0,16-7.2,16-16v-10.2c-5-0.2-7.7-2.9-9.7-4.9C554.6,256.7,553.6,255.9,551.5,255.9z"/>
		<path class="st3" d="M550.2,232.3h-43.4c-4.6,0-16,0-16,0s0,11.7,0,16v0c5,0.2,7.7,2.9,9.7,4.9c1.9,1.9,2.8,2.7,4.9,2.7
			s3.1-0.8,5-2.7c2.1-2.1,5-5,10.4-5c5.4,0,8.3,2.9,10.4,5c1.9,1.9,2.8,2.7,4.9,2.7c2.2,0,3.1-0.8,5-2.7c2.1-2.1,5-5,10.4-5
			c5.4,0,8.3,2.9,10.4,5c1.7,1.7,2.6,2.5,4.3,2.7v-7.6c0-4.4,0-16,0-16S554.6,232.3,550.2,232.3z"/>
	</g>
	<g>
		<path class="st3" d="M539.4,192.7c0,5-3,7.5-5.1,9.4c-1.9,1.7-2.5,2.3-2.5,3.8s0.6,2.2,2.5,3.8c2.2,1.9,5.1,4.4,5.1,9.4
			c0,5-3,7.5-5.1,9.4c-1.9,1.7-2.5,2.3-2.5,3.8H524c0-5,3-7.5,5.1-9.4c1.9-1.7,2.5-2.3,2.5-3.8c0-1.5-0.6-2.2-2.5-3.8
			c-2.2-1.9-5.1-4.4-5.1-9.4c0-5,3-7.5,5.1-9.4C531.1,194.8,539.4,192.7,539.4,192.7z"/>
	</g>
	<path class="st3" d="M436.4,399.5H315.9c0,0,2.5-3.7,2.3-8.9H192.7c-2.3,0-8.3,0-8.3,0c0,0.3,0,1.9,0,8.3c0,4.6,3.7,8.3,8.3,8.3
		h264.6c1.6-2.6,4.9-8.8,4.8-16.6h-24.3C437.8,393.9,437.2,397,436.4,399.5z"/>
	<path class="st3" d="M432.1,408.5H307.6c-2.5,0-4.5-2-4.5-4.5c0-1.9,0-4.5,0-4.5s1.9,0,4.5,0h129
		C435.7,402.4,434.3,405.4,432.1,408.5z"/>
	<path class="st3" d="M456.4,374c-10.4,0-18.8,0-24.3,0c12.8,17.9,0,34.5,0,34.5s5.4,0,14.6,0c2.9,0,6.1,0,9.7,0
		C456.4,408.5,469.1,391.9,456.4,374z"/>
	<path class="st3" d="M479.3,374c-1.4,0-2.8,0-4.1,0c-4.3,0-8.5,0-12.5,0c0,0,10.2,16.6,0,34.5c2.2,0,4.5,0,6.9,0c3.1,0,6.3,0,9.7,0
		C479.3,408.5,492.1,391.9,479.3,374z"/>
	<path class="st3" d="M607,374c-30.8,0-72.9,0-108.8,0c-4.3,0-8.4,0-12.5,0c0,0,10.2,16.6,0,34.5c33.7,0,77.2,0,111.6,0
		c3.3,0,6.5,0,9.7,0C607,408.5,619.8,391.9,607,374z"/>
	<g>
		<path class="st3" d="M630,374c-1.3,0-2.7,0-4.1,0c-3.8,0-8,0-12.5,0c0,0,10.2,16.6,0,34.5c2.4,0,4.7,0,6.9,0c3.4,0,6.7,0,9.7,0
			C630,408.5,642.8,391.9,630,374z"/>
		<path class="st3" d="M650.5,374c0,0-0.6,0-1.6,0c-2.2,0-6.5,0-12.5,0c0,0,10.2,16.6,0,34.5c6,0,10.8,0,14,0
			C660.7,390.6,650.5,374,650.5,374z"/>
	</g>
	<path class="st3" d="M307.6,374c-2.5,0-4.5,2-4.5,4.5c0,1.9,0,4.5,0,4.5s1.9,0,4.5,0h129c-0.9-2.9-2.3-5.9-4.5-8.9H307.6z"/>
</g>
</svg>
