<?xml version="1.0" encoding="utf-8"?>
<!-- Generator: Adobe Illustrator 22.0.1, SVG Export Plug-In . SVG Version: 6.00 Build 0)  -->
<svg version="1.1" id="Layer_1" xmlns="http://www.w3.org/2000/svg" xmlns:xlink="http://www.w3.org/1999/xlink" x="0px" y="0px"
	 viewBox="0 0 799 601" style="enable-background:new 0 0 799 601;" xml:space="preserve">
<style type="text/css">
	.st0{fill:#EA473E;}
	.st1{display:none;}
	.st2{fill:#458BF3;}
	.st3{fill:#FFFFFF;}
	.st4{fill:#CDCFD5;}
	.st5{fill:#2D3035;}
	.st6{fill:#1E1E1F;}
	.st7{fill:#696D72;}
	.st8{fill:#E4B319;}
	.st9{fill:#5F9D50;}
	.st10{fill:#64A554;}
	.st11{fill:#3C682A;}
	.st12{fill:#3C692A;}
	.st13{fill:#FEFEFE;}
	.st14{fill:#DDDEE2;}
	.st15{fill:#C23C31;}
	.st16{fill:#9E2B24;}
	.st17{fill:#DFE0E4;}
	.st18{font-family:'ArialMT';}
	.st19{font-size:15.4983px;}
	.st20{fill:#EAB81A;}
	.st21{fill:#CB8C17;}
	.st22{fill:#CC8E18;}
	.st23{fill:#CC8D17;}
	.st24{fill:#EFEFF1;}
	.st25{fill:#C23B30;}
	.st26{fill:#EFF0F2;}
</style>
<g id="xwZEAs.tif_2_">
	<rect x="-0.5" y="0.5" class="st2" width="800" height="600"/>
</g>
<g>
	<g>
		<path class="st4" d="M545.7,396.4H169.9c-4.6,0-8.4-3.8-8.4-8.4l0,0c0-9.6,0-8.5,0-8.4c0,0,6.1,0,8.4,0h375.8c2.3,0,8.4,0,8.4,0
			s0,6.1,0,8.4v0C554.1,392.6,550.4,396.4,545.7,396.4z"/>
		<path class="st5" d="M481.5,379.6H223.7c-3.8,0-14.5,0-14.5,0s0-10.2,0-14.4V195c0-7.9,6.5-14.4,14.5-14.4h257.8
			c8,0,14.5,6.4,14.5,14.4v170.2c0,4,0,14.4,0,14.4S485.5,379.6,481.5,379.6z"/>
		<path class="st6" d="M471.6,369.2H233.7c-3.5,0-13.3,0-13.3,0s0-9.1,0-12.8V205.1c0-12.1-0.1-12.8,13.3-12.8h237.8
			c13.5,0,13.3,0.6,13.3,12.8v151.4c0,3.5,0,12.8,0,12.8S475.3,369.2,471.6,369.2z"/>
		<g>
			<path class="st7" d="M258.4,210.4h-24.7c-1.4,0-2.5-1.1-2.5-2.5v-1.5c0-1.4,1.1-2.5,2.5-2.5h24.7c1.4,0,2.5,1.1,2.5,2.5v1.5
				C260.9,209.3,259.8,210.4,258.4,210.4z"/>
			<path class="st8" d="M241.7,222h-7.9c-1.4,0-2.5-1.1-2.5-2.5V218c0-1.4,1.1-2.5,2.5-2.5h7.9c1.4,0,2.5,1.1,2.5,2.5v1.5
				C244.2,220.9,243,222,241.7,222z"/>
			<path class="st3" d="M271.4,222h-19.5c-1.4,0-2.5-1.1-2.5-2.5V218c0-1.4,1.1-2.5,2.5-2.5h19.5c1.4,0,2.5,1.1,2.5,2.5v1.5
				C273.9,220.9,272.7,222,271.4,222z"/>
			<path class="st8" d="M289.4,222h-7.9c-1.4,0-2.5-1.1-2.5-2.5V218c0-1.4,1.1-2.5,2.5-2.5h7.9c1.4,0,2.5,1.1,2.5,2.5v1.5
				C291.9,220.9,290.8,222,289.4,222z"/>
			<path class="st3" d="M304.9,232.3h-53.1c-1.4,0-2.5-1.1-2.5-2.5v-1.5c0-1.4,1.1-2.5,2.5-2.5h53.1c1.4,0,2.5,1.1,2.5,2.5v1.5
				C307.4,231.2,306.3,232.3,304.9,232.3z"/>
			<path class="st9" d="M326.9,232.3h-11.8c-1.4,0-2.5-1.1-2.5-2.5v-1.5c0-1.4,1.1-2.5,2.5-2.5h11.8c1.4,0,2.5,1.1,2.5,2.5v1.5
				C329.4,231.2,328.3,232.3,326.9,232.3z"/>
			<path class="st3" d="M335.9,244h-60.9c-1.4,0-2.5-1.1-2.5-2.5V240c0-1.4,1.1-2.5,2.5-2.5h60.9c1.4,0,2.5,1.1,2.5,2.5v1.5
				C338.4,242.8,337.3,244,335.9,244z"/>
			<path class="st3" d="M306.2,255.6h-54.4c-1.4,0-2.5-1.1-2.5-2.5v-1.5c0-1.4,1.1-2.5,2.5-2.5h54.4c1.4,0,2.5,1.1,2.5,2.5v1.5
				C308.7,254.5,307.6,255.6,306.2,255.6z"/>
			<path class="st8" d="M241.7,265.9h-7.9c-1.4,0-2.5-1.1-2.5-2.5V262c0-1.4,1.1-2.5,2.5-2.5h7.9c1.4,0,2.5,1.1,2.5,2.5v1.5
				C244.2,264.8,243,265.9,241.7,265.9z"/>
			<path class="st3" d="M271.4,265.9h-19.5c-1.4,0-2.5-1.1-2.5-2.5V262c0-1.4,1.1-2.5,2.5-2.5h19.5c1.4,0,2.5,1.1,2.5,2.5v1.5
				C273.9,264.8,272.7,265.9,271.4,265.9z"/>
			<path class="st8" d="M289.4,265.9h-7.9c-1.4,0-2.5-1.1-2.5-2.5V262c0-1.4,1.1-2.5,2.5-2.5h7.9c1.4,0,2.5,1.1,2.5,2.5v1.5
				C291.9,264.8,290.8,265.9,289.4,265.9z"/>
			<path class="st7" d="M242.9,277.5h-9.2c-1.4,0-2.5-1.1-2.5-2.5v-1.5c0-1.4,1.1-2.5,2.5-2.5h9.2c1.4,0,2.5,1.1,2.5,2.5v1.5
				C245.4,276.4,244.3,277.5,242.9,277.5z"/>
			<path class="st7" d="M259.7,289.2h-26c-1.4,0-2.5-1.1-2.5-2.5v-1.5c0-1.4,1.1-2.5,2.5-2.5h26c1.4,0,2.5,1.1,2.5,2.5v1.5
				C262.2,288,261.1,289.2,259.7,289.2z"/>
			<path class="st8" d="M241.7,300.8h-7.9c-1.4,0-2.5-1.1-2.5-2.5v-1.5c0-1.4,1.1-2.5,2.5-2.5h7.9c1.4,0,2.5,1.1,2.5,2.5v1.5
				C244.2,299.7,243,300.8,241.7,300.8z"/>
			<path class="st3" d="M271.4,300.8h-19.5c-1.4,0-2.5-1.1-2.5-2.5v-1.5c0-1.4,1.1-2.5,2.5-2.5h19.5c1.4,0,2.5,1.1,2.5,2.5v1.5
				C273.9,299.7,272.7,300.8,271.4,300.8z"/>
			<path class="st8" d="M289.4,300.8h-7.9c-1.4,0-2.5-1.1-2.5-2.5v-1.5c0-1.4,1.1-2.5,2.5-2.5h7.9c1.4,0,2.5,1.1,2.5,2.5v1.5
				C291.9,299.7,290.8,300.8,289.4,300.8z"/>
			<path class="st3" d="M304.9,311.1h-54.4c-1.4,0-2.5-1.1-2.5-2.5v-1.5c0-1.4,1.1-2.5,2.5-2.5h54.4c1.4,0,2.5,1.1,2.5,2.5v1.5
				C307.4,310,306.3,311.1,304.9,311.1z"/>
			<path class="st9" d="M241.7,322.7h-7.9c-1.4,0-2.5-1.1-2.5-2.5v-1.5c0-1.4,1.1-2.5,2.5-2.5h7.9c1.4,0,2.5,1.1,2.5,2.5v1.5
				C244.2,321.6,243,322.7,241.7,322.7z"/>
			<path class="st3" d="M271.4,322.7h-19.5c-1.4,0-2.5-1.1-2.5-2.5v-1.5c0-1.4,1.1-2.5,2.5-2.5h19.5c1.4,0,2.5,1.1,2.5,2.5v1.5
				C273.9,321.6,272.7,322.7,271.4,322.7z"/>
			<path class="st9" d="M289.4,322.7h-7.9c-1.4,0-2.5-1.1-2.5-2.5v-1.5c0-1.4,1.1-2.5,2.5-2.5h7.9c1.4,0,2.5,1.1,2.5,2.5v1.5
				C291.9,321.6,290.8,322.7,289.4,322.7z"/>
			<path class="st7" d="M242.9,334.4h-9.2c-1.4,0-2.5-1.1-2.5-2.5v-1.5c0-1.4,1.1-2.5,2.5-2.5h9.2c1.4,0,2.5,1.1,2.5,2.5v1.5
				C245.4,333.2,244.3,334.4,242.9,334.4z"/>
		</g>
	</g>
	<g>
		<path class="st10" d="M632.9,397.6c-32.3,0-220.9,0-220.9,0s12.9-16.8,0-34.9c38.7,0,220.9,0,220.9,0S643.2,379.6,632.9,397.6z"/>
		<path class="st11" d="M443.1,397.6c-32.3,0-6.5,0-6.5,0s12.9-16.8,0-34.9c38.7,0,6.5,0,6.5,0S453.4,379.6,443.1,397.6z"/>
		<path class="st11" d="M466.3,397.6c-32.3,0-6.5,0-6.5,0s12.9-16.8,0-34.9c38.7,0,6.5,0,6.5,0S476.6,379.6,466.3,397.6z"/>
		<path class="st11" d="M595.5,397.6c-32.3,0-6.5,0-6.5,0s12.9-16.8,0-34.9c38.7,0,6.5,0,6.5,0S605.8,379.6,595.5,397.6z"/>
		<path class="st11" d="M618.7,397.6c-32.3,0-6.5,0-6.5,0s12.9-16.8,0-34.9c38.7,0,6.5,0,6.5,0S629,379.6,618.7,397.6z"/>
		<path class="st12" d="M412.1,362.8H286.1c-2.5,0-4.5,2-4.5,4.5c0,2,0,4.5,0,4.5s2,0,4.5,0h130.5
			C415.7,368.9,414.3,365.9,412.1,362.8z"/>
		<path class="st12" d="M412.1,397.6H286.1c-2.5,0-4.5-2-4.5-4.5c0-2,0-4.5,0-4.5s2,0,4.5,0h130.5
			C415.7,391.5,414.3,394.6,412.1,397.6z"/>
		<path class="st13" d="M416.4,388.6c1.4-4.5,2.1-10.4,0.1-16.8c-20.3,0-102.8,0-122.1,0c5.2,9,0,16.8,0,16.8H416.4z"/>
		<path class="st14" d="M294.5,371.8c1,1.8,1.6,3.5,2,5.2h121.1c-0.2-1.7-0.5-3.4-1-5.2C396.3,371.8,313.7,371.8,294.5,371.8z"/>
	</g>
	<g>
		<path class="st15" d="M337.9,362.8c32.3,0,160.1,0,160.1,0s-12.3-24.5,2.6-50.4c-38.7,0-161.4,0-161.4,0S325.5,338.2,337.9,362.8z
			"/>
		<path class="st16" d="M600.7,312.4H500.6c-2,3.5-3.5,6.9-4.6,10.3h104.7c2.6,0,4.5,0,4.5,0s0-3.9,0-5.8
			C605.2,314.4,603.2,312.4,600.7,312.4z"/>
		<path class="st16" d="M601.3,352.4H494.6c1.4,6.4,3.4,10.3,3.4,10.3h103.3c2.5,0,4.5-2,4.5-4.5c0-2,0-5.8,0-5.8
			S603.8,352.4,601.3,352.4z"/>
		<path class="st17" d="M597.5,322.7c-18.2,0-77.9,0-101.5,0c-3.8,11.6-3,22.3-1.3,29.7h102.8C597.5,352.4,591.6,339.5,597.5,322.7z
			"/>
		<path class="st4" d="M496,322.7c-1.3,4-2.1,7.9-2.5,11.6H595c0.3-3.5,1-7.5,2.5-11.6C579.3,322.7,519.6,322.7,496,322.7z"/>
	</g>
	<text transform="matrix(1 0 0 1 164.9434 416.5891)" class="st18 st19"> </text>
	<g>
		<polygon class="st3" points="407.2,327 403,323.5 388.8,340.3 405.7,355.7 409.2,351.5 396.6,339.6 		"/>
		<polygon class="st3" points="416.2,326.3 419.7,322.1 436.5,336.2 422.4,354.3 418.2,350.7 428.7,336.9 		"/>
	</g>
	<g>
		<path class="st20" d="M578.7,312.4c-32.3,0-109.8,0-109.8,0s12.9-16.8,0-34.9c38.7,0,109.8,0,109.8,0S589,294.3,578.7,312.4z"/>
		<path class="st21" d="M490.8,312.4c-32.3,0-6.5,0-6.5,0s12.9-16.8,0-34.9c38.7,0,6.5,0,6.5,0S501.2,294.3,490.8,312.4z"/>
		<path class="st21" d="M567,312.4c-32.3,0-6.5,0-6.5,0s12.9-16.8,0-34.9c38.7,0,6.5,0,6.5,0S577.4,294.3,567,312.4z"/>
		<path class="st22" d="M468.9,277.5H374c-2.5,0-4.5,2-4.5,4.5c0,2,0,4.5,0,4.5s2,0,4.5,0h99.5C472.5,283.6,471.1,280.6,468.9,277.5
			z"/>
		<path class="st23" d="M468.9,312.4H374c-2.5,0-4.5-2-4.5-4.5c0-2,0-4.5,0-4.5s2,0,4.5,0h99.5C472.5,306.3,471.1,309.3,468.9,312.4
			z"/>
		<path class="st13" d="M473.3,303.4c1.4-4.5,2.1-10.4,0.1-16.8c-20.3,0-71.8,0-91.1,0c5.2,9,0,16.8,0,16.8H473.3z"/>
		<path class="st14" d="M382.4,286.6c1,1.8,1.6,3.5,2,5.2h90.1c-0.2-1.7-0.5-3.4-1-5.2C453.1,286.6,401.6,286.6,382.4,286.6z"/>
	</g>
	<g>
		<path class="st24" d="M531.5,277.5h-43.9c-8.9,0-16.2-7.2-16.2-16.2v-25.8c0-4.3,0-16.2,0-16.2s11.5,0,16.2,0h43.9
			c4.5,0,16.2,0,16.2,0s0,11.7,0,16.2v25.8C547.7,270.3,540.4,277.5,531.5,277.5z"/>
		<path class="st3" d="M471.5,250.4h-16.3c-4.5,0-8.2-3.7-8.2-8.2v-6.8c0-4.5,3.7-8.2,8.2-8.2h16.3c0-4,0-7.7,0-7.7h-18
			c-7.9,0-14.3,6.4-14.3,14.3v11.4c0,7.9,6.4,14.3,14.3,14.3h18V250.4z"/>
		<path class="st25" d="M532.8,235.6c-5.5,0-8.4,2.9-10.5,5c-1.9,1.9-2.8,2.7-5,2.7c-2.2,0-3.1-0.8-5-2.7c-2.1-2.1-5-5-10.5-5
			c-5.5,0-8.4,2.9-10.5,5c-1.9,1.9-2.8,2.7-5,2.7c-2.2,0-3.1-0.8-5-2.7c-2-2-4.8-4.7-9.8-5v7.7c1.7,0.2,2.7,1,4.4,2.7
			c2.1,2.1,5,5,10.5,5s8.4-2.9,10.5-5c1.9-1.9,2.8-2.7,5-2.7c2.2,0,3.1,0.8,5,2.7c2.1,2.1,5,5,10.5,5c5.5,0,8.4-2.9,10.5-5
			c1.9-1.9,2.8-2.7,5-2.7c2.2,0,3.1,0.8,5,2.7c2,2,4.8,4.7,9.8,5v-7.7c-1.7-0.2-2.7-1-4.4-2.7C541.2,238.5,538.3,235.6,532.8,235.6z
			"/>
	</g>
	<g>
		<path class="st26" d="M520.5,179.4c0,5-3,7.6-5.2,9.5c-1.9,1.7-2.6,2.3-2.6,3.9c0,1.5,0.6,2.2,2.6,3.9c2.2,1.9,5.2,4.5,5.2,9.5
			c0,5-3,7.6-5.2,9.5c-1.9,1.7-2.6,2.3-2.6,3.9H505c0-5,3-7.6,5.2-9.5c1.9-1.7,2.6-2.3,2.6-3.9c0-1.5-0.6-2.2-2.6-3.9
			c-2.2-1.9-5.2-4.5-5.2-9.5c0-5,3-7.6,5.2-9.5C512.2,181.6,520.5,179.4,520.5,179.4z"/>
	</g>
</g>
</svg>
